<?xml version="1.0" encoding="UTF-8"?>
<svg version="1.1" viewBox="0 0 242.5 239.46" xmlns="http://www.w3.org/2000/svg" xmlns:cc="http://creativecommons.org/ns#" xmlns:dc="http://purl.org/dc/elements/1.1/" xmlns:rdf="http://www.w3.org/1999/02/22-rdf-syntax-ns#">
<metadata>
<rdf:RDF>
<cc:Work rdf:about="">
<dc:format>image/svg+xml</dc:format>
<dc:type rdf:resource="http://purl.org/dc/dcmitype/StillImage"/>
<dc:title/>
</cc:Work>
</rdf:RDF>
</metadata>
<defs>
<style>.cls-1,.cls-6{fill:none;}.cls-2{clip-path:url(#a);}.cls-3{fill:#33c6f4;}.cls-4{fill:#1b447e;}.cls-5{fill:#fff;}.cls-6{stroke:#221e1f;stroke-miterlimit:10;stroke-width:7.16px;}</style>
<clipPath id="a" transform="translate(1.72)">
<circle class="cls-1" cx="119.73" cy="119.73" r="116.15"/>
</clipPath>
</defs>
<g transform="matrix(43.104 0 0 43.104 .006827 .0054923)" fill-rule="evenodd">
<g transform="matrix(1.0755,0,0,1.0755,-3.5103,-1.6684)">
<path d="m5.8465 1.9131c0.57932 0 1.1068 0.222 1.5022 0.58547-0.1938-0.0052-0.3872 0.11-0.3952 0.3738-0.0163 0.5333 0.6377 0.6469 0.2853 1.7196l-0.2915 0.8873-0.7939-2.3386c-0.0123-0.0362 2e-3 -0.0568 0.0465-0.0568h0.22445c0.011665 0 0.021201-0.00996 0.021201-0.022158v-0.13294c0-0.012193-0.00956-0.022657-0.021201-0.022153-0.42505 0.018587-0.8476 0.018713-1.2676 0-0.0117-5e-4 -0.0212 0.01-0.0212 0.0222v0.13294c0 0.012185 0.00954 0.022158 0.021201 0.022158h0.22568c0.050201 0 0.064256 0.016728 0.076091 0.049087l0.3262 0.8921-0.4907 1.4817-0.8066-2.3758c-0.01-0.0298 0.0021-0.0471 0.0308-0.0471h0.25715c0.011661 0 0.021197-0.00996 0.021197-0.022158v-0.13294c0-0.012193-0.00957-0.022764-0.021197-0.022153-0.2698 0.014331-0.54063 0.017213-0.79291 0.019803 0.39589-0.60984 1.0828-1.0134 1.8639-1.0134l-2.9e-6 -6.2e-6zm1.9532 1.1633c0.17065 0.31441 0.26755 0.67464 0.26755 1.0574 0 0.84005-0.46675 1.5712-1.1549 1.9486l0.6926-1.9617c0.1073-0.3036 0.2069-0.7139 0.1947-1.0443h-4e-6zm-1.2097 3.1504c-0.2325 0.0827-0.4827 0.1278-0.7435 0.1278-0.2247 0-0.4415-0.0335-0.6459-0.0955l0.68415-1.9606 0.70524 1.9284v-1e-7zm-1.6938-0.0854c-0.75101-0.35617-1.2705-1.1213-1.2705-2.0075 0-0.32852 0.071465-0.64038 0.19955-0.92096l1.071 2.9285 3e-6 -3e-6zm0.95023-4.4367c1.3413 0 2.4291 1.0878 2.4291 2.4291s-1.0878 2.4291-2.4291 2.4291-2.4291-1.0878-2.4291-2.4291 1.0878-2.4291 2.4291-2.4291zm0-0.15354c1.4261 0 2.5827 1.1566 2.5827 2.5827s-1.1566 2.5827-2.5827 2.5827-2.5827-1.1566-2.5827-2.5827 1.1566-2.5827 2.5827-2.5827z" fill="#464342"/>
</g>
</g>
<g transform="translate(-1.72)" opacity=".8" style="mix-blend-mode:luminosity" data-name="Layer 2">
<g data-name="Layer 1">
<g class="cls-2" clip-path="url(#a)">
<circle class="cls-3" cx="121.45" cy="119.73" r="116.15"/>
<path class="cls-4" transform="translate(1.72)" d="m239.32 167.79c-53.41-24-108.37-91.46-113-94.55s-10.84 0.77-10.84 0.77c-3.87-6.19-10.06 0.77-10.06 0.77-28.65 48.77-105.28 95.33-105.28 95.33s36.8 67.68 121.86 67.68c86.48 0 117.32-70 117.32-70z"/>
<path class="cls-5" transform="translate(1.72)" d="m67.48 116.58s15.48-7 12.38 4.65-15.48 28.64-11.61 29.41 14.75-10.06 17.81-8.52 5.42 0.78 3.87 6.2-3.1 9.29 0 9.29 5.42-7 9.29-13.94 10.06-3.87 12.38-1.55 9.29 15.49 14.71 13.94 8.51-8.52 6.19-24 1.55-20.12 1.55-20.12 4.64-2.32 13.16 8.51 24 27.09 26.31 26.32-10.83-17.8-7.74-19.35 15.48 2.32 21.68 7.74c0 0 2.12 8.87 2.12 0.36l-63.27-62.28-10.84 0.76-10.06 0.77s-24.77 37.17-37.93 41.81z"/>
<path class="cls-6" transform="translate(1.72)" d="m239.32 170.11c-53.41-24-108.37-93.78-113-96.87s-10.84 0.77-10.84 0.77c-3.87-6.19-10.06 0.77-10.06 0.77-28.65 48.77-105.28 95.33-105.28 95.33"/>
</g>
<circle class="cls-6" cx="121.45" cy="119.73" r="116.15"/>
</g>
</g>
</svg>
